<?xml version="1.0" encoding="UTF-8" standalone="no"?><!DOCTYPE svg PUBLIC "-//W3C//DTD SVG 1.1//EN" "http://www.w3.org/Graphics/SVG/1.1/DTD/svg11.dtd"><svg width="100%" height="100%" viewBox="0 0 24 24" version="1.1" xmlns="http://www.w3.org/2000/svg" xmlns:xlink="http://www.w3.org/1999/xlink" xml:space="preserve" xmlns:serif="http://www.serif.com/" style="fill-rule:evenodd;clip-rule:evenodd;stroke-linejoin:round;stroke-miterlimit:2;"><g id="Icon"><g><path d="M6,14.916l13,0c2.07,0 3.75,-1.68 3.75,-3.75c0,-2.069 -1.68,-3.75 -3.75,-3.75c-0.026,0 -0.051,0 -0.077,0.001c-0.481,-3.114 -3.175,-5.501 -6.423,-5.501c-2.527,0 -4.718,1.445 -5.794,3.553c-0.23,-0.035 -0.466,-0.053 -0.706,-0.053c-2.622,0 -4.75,2.129 -4.75,4.75c0,2.622 2.128,4.75 4.75,4.75Zm0,-1.5c-1.794,0 -3.25,-1.456 -3.25,-3.25c0,-1.794 1.456,-3.25 3.25,-3.25c0.322,0 0.633,0.047 0.927,0.134c0.374,0.111 0.77,-0.083 0.912,-0.446c0.727,-1.865 2.541,-3.188 4.661,-3.188c2.714,0 4.927,2.168 4.998,4.865c0.006,0.229 0.116,0.442 0.299,0.579c0.182,0.138 0.417,0.185 0.639,0.128c0.18,-0.047 0.369,-0.072 0.564,-0.072c1.242,0 2.25,1.008 2.25,2.25c0,1.242 -1.008,2.25 -2.25,2.25l-13,0Z"/><path d="M1.886,18.977l2.304,-1.383c0.396,-0.237 0.891,-0.237 1.286,0l1.276,0.766c0.871,0.522 1.959,0.522 2.83,-0l1.275,-0.766c0.396,-0.237 0.89,-0.237 1.286,0l1.275,0.766c0.871,0.522 1.959,0.522 2.83,-0l1.276,-0.766c0.395,-0.237 0.89,-0.237 1.286,0c-0,0 2.304,1.383 2.304,1.383c0.355,0.213 0.816,0.098 1.029,-0.257c0.213,-0.355 0.098,-0.816 -0.257,-1.029l-2.304,-1.383c-0.871,-0.522 -1.959,-0.522 -2.83,0l-1.276,0.765c-0.395,0.238 -0.89,0.238 -1.286,0l-1.275,-0.765c-0.871,-0.522 -1.959,-0.522 -2.83,0l-1.275,0.765c-0.396,0.238 -0.891,0.238 -1.286,0l-1.276,-0.765c-0.871,-0.522 -1.959,-0.522 -2.83,0l-2.304,1.383c-0.355,0.213 -0.47,0.674 -0.257,1.029c0.213,0.355 0.674,0.47 1.029,0.257Z"/><path d="M1.886,21.977l2.304,-1.383c0.396,-0.237 0.891,-0.237 1.286,0l1.276,0.766c0.871,0.522 1.959,0.522 2.83,-0l1.275,-0.766c0.396,-0.237 0.89,-0.237 1.286,0l1.275,0.766c0.871,0.522 1.959,0.522 2.83,-0l1.276,-0.766c0.395,-0.237 0.89,-0.237 1.286,0c-0,0 2.304,1.383 2.304,1.383c0.355,0.213 0.816,0.098 1.029,-0.257c0.213,-0.355 0.098,-0.816 -0.257,-1.029l-2.304,-1.383c-0.871,-0.522 -1.959,-0.522 -2.83,0l-1.276,0.765c-0.395,0.238 -0.89,0.238 -1.286,0l-1.275,-0.765c-0.871,-0.522 -1.959,-0.522 -2.83,0l-1.275,0.765c-0.396,0.238 -0.891,0.238 -1.286,0l-1.276,-0.765c-0.871,-0.522 -1.959,-0.522 -2.83,0l-2.304,1.383c-0.355,0.213 -0.47,0.674 -0.257,1.029c0.213,0.355 0.674,0.47 1.029,0.257Z"/></g></g></svg>